PathFileType	4	(X/Y/Z)	D:\TRACE\v60_Jaco2_6-2-23\ArmBodyNoDRS_DMP_1-platform.trc
DataRate	CameraRate	NumFrames	NumMarkers	Units	OrigDataRate	OrigDataStartFrame	OrigNumFrames
100.00	100.00	      45	5	mm	100.00	1329	      5315
Frame#	Time	Left_Front			Right_Front			Left_Aft			Right_Aft			Post			
		X1	Y1	Z1	X2	Y2	Z2	X3	Y3	Z3	X4	Y4	Z4	X5	Y5	Z5	

1329	13.280				780.24731	9.89030	-632.84528	-719.46545	6.82822	480.95572	697.63068	8.46804	582.88477	3.11683	1307.57983	-966.09589	
1330	13.290				780.24701	9.90798	-632.79767	-719.50024	6.78084	480.95572	697.68909	8.38314	582.92847	3.02904	1307.54443	-966.11688	
1331	13.300				780.23718	9.79306	-632.76819	-719.52563	6.71900	481.03104	697.66248	8.35245	582.99451	3.05072	1307.51904	-966.09570	
1332	13.310				780.28662	9.79350	-632.72363	-719.50262	6.67432	481.14819	697.59717	8.33267	583.07300	3.15246	1307.47021	-965.98999	
1333	13.320				780.20685	9.77594	-632.81329	-719.47229	6.72349	481.09195	697.59070	8.40566	583.00684	3.15973	1307.47400	-966.03375	
1334	13.330				780.28491	9.85703	-632.76331	-719.48492	6.81135	480.97894	697.65131	8.43600	582.92297	3.18809	1307.51111	-966.06995	
1335	13.340				780.22522	9.85188	-632.83167	-719.18671	6.37915	481.05057	697.62775	8.44976	582.89587	3.13037	1307.50952	-966.12653	
1336	13.350				780.26459	9.78920	-632.84680	-719.16821	6.31670	481.09564	697.62701	8.37599	582.97583	3.09671	1307.44604	-966.06122	
1337	13.360				780.24554	9.79080	-632.78949	-719.50342	6.70239	481.03180	697.57275	8.33859	583.02173	3.16088	1307.39893	-966.01965	
1338	13.370				780.28052	9.75844	-632.77533	-719.16931	6.25424	481.20358	697.54584	8.35503	583.10919	3.31102	1307.43408	-965.96429	
1339	13.380				780.23828	9.81568	-632.78308	-719.47467	6.72561	481.01645	697.39838	8.30441	583.06470	3.13387	1307.53467	-966.06024	
1340	13.390				780.24377	9.83909	-632.82178	-719.14185	6.28365	481.14609	697.07037	8.07389	583.24011	3.16763	1307.56079	-966.05145	
1341	13.400				780.24060	9.81256	-632.79443	-719.47357	6.67622	481.01001	696.86688	7.81403	583.10529	3.11761	1307.51880	-966.05670	
1342	13.410				780.27924	9.79711	-632.76129	-719.49603	6.67413	481.06512	697.11993	8.18212	583.34973	3.14300	1307.42859	-965.95673	
1343	13.420				780.18646	9.87398	-632.76678	-719.21613	6.28801	481.19891	697.04211	8.08966	583.20612	3.17433	1307.43091	-965.94946	
1344	13.430				780.24158	9.94140	-632.80566	-719.49683	6.78675	481.01010	697.06415	8.13622	583.27997	3.14135	1307.44836	-965.98505	
1345	13.440				780.31329	9.69635	-632.74127	-719.50513	6.79874	480.96423	697.06305	8.23970	583.35199	3.11925	1307.48889	-965.99542	
1346	13.450				780.33246	9.45579	-632.66760	-719.16864	6.28412	481.02097	697.05164	8.21484	583.25385	3.03736	1307.52478	-966.05133	
1347	13.460				780.27844	9.57849	-632.71783	-719.17999	6.26289	481.09808	697.04114	8.07492	583.26617	3.27091	1307.40930	-965.99072	
1348	13.470				780.28491	9.75678	-632.77399	-719.16791	6.26830	481.19196	698.09314	8.98300	583.41547	3.41639	1307.40002	-965.97821	
1349	13.480				780.30273	9.68781	-632.73987	-719.51709	6.70941	481.05942	698.13104	8.95266	583.40295	3.12616	1307.54675	-966.15234	
1350	13.490				780.32642	9.75175	-632.69196	-719.18628	6.29914	481.03247	697.18701	8.19742	583.42572	2.90165	1307.68713	-966.26471	
1351	13.500				780.27393	9.79189	-632.73785	-719.15576	6.30910	481.03314	697.17249	8.20731	583.40375	2.90471	1307.67749	-966.21710	
1352	13.510				780.27417	9.76522	-632.79773	-719.25482	6.34887	480.86716	698.05621	9.02490	583.31885	3.15598	1307.49329	-966.04498	
1353	13.520				780.24841	9.55212	-632.77881	-719.48389	6.63607	480.82837	698.06219	9.03035	583.34094	3.26175	1307.31750	-965.87579	
1354	13.530				780.26428	9.48259	-632.72778	-719.47992	6.76242	480.87573	697.00409	8.21012	583.56073	3.37005	1307.35962	-965.83838	
1355	13.540				780.31464	9.70401	-632.76270	-719.45276	6.81570	480.77927	697.02081	8.13805	583.43518	3.30436	1307.43115	-965.84583	
1356	13.550				780.22485	9.74276	-632.81787	-719.59070	6.95338	480.73911	696.97681	8.20963	583.39886	3.15120	1307.55542	-965.94965	
1357	13.560				780.22980	9.75953	-632.80237	-719.46429	6.75871	480.68219	696.89905	8.16867	583.40509	3.01446	1307.51611	-966.03772	
1358	13.570				780.26654	9.59172	-632.68622	-719.51086	6.74273	480.75583	696.90057	8.11785	583.45734	3.12167	1307.45410	-965.98590	
1359	13.580				780.24841	9.61755	-632.68982	-719.68085	6.83507	480.83038	696.89496	8.05900	583.53357	3.25365	1307.42053	-965.91174	
1360	13.590				780.25281	9.69323	-632.76947	-719.43542	6.65925	480.82269	697.03540	8.13483	583.55872	3.38179	1307.41992	-965.92566	
1361	13.600				780.20569	9.76195	-632.72949	-719.40448	6.75435	480.74100	698.12061	8.96406	583.38647	3.12942	1307.58447	-966.06921	
1362	13.610				780.21307	9.76177	-632.78430	-719.42065	6.73045	480.68011	697.08698	8.26989	583.38330	3.05738	1307.57910	-966.16907	
1363	13.620				780.19092	9.67675	-632.81140	-719.62982	6.88655	480.72498	697.03143	8.27102	583.42883	2.98890	1307.50867	-966.07629	
1364	13.630				780.22791	9.61264	-632.71692	-719.49707	6.70194	480.72620	697.08105	8.26292	583.52539	3.10882	1307.40625	-965.98328	
1365	13.640				780.25366	9.63833	-632.73822	-719.61713	6.86902	480.77161	697.09753	8.24661	583.57880	3.28420	1307.38708	-965.91089	
1366	13.650				780.28845	9.67415	-632.78137	-719.39484	6.72400	480.70895	697.31244	8.40211	583.42773	3.33437	1307.45398	-965.92657	
1367	13.660				780.24750	9.75864	-632.79474	-719.39612	6.76419	480.65546	697.27985	8.42213	583.40326	3.09470	1307.55310	-966.04291	
1368	13.670				780.21448	9.73741	-632.82489	-719.42816	6.67599	480.64859	697.31409	8.40437	583.41278	3.03143	1307.54102	-966.09235	
1369	13.680				780.26709	9.67156	-632.75958	-719.46759	6.62791	480.74582	697.34265	8.33238	583.44214	2.99953	1307.51917	-966.02301	
1370	13.690				780.26569	9.62762	-632.65851	-719.60687	6.71891	480.81131	697.31946	8.35890	583.48462	3.17130	1307.41956	-965.92548	
1371	13.700				780.27545	9.62264	-632.68903	-719.49200	6.68931	481.06226	697.40564	8.48260	583.48389	3.20973	1307.45081	-965.94055	
1372	13.710				780.27301	9.76406	-632.70789	-719.47894	6.77166	480.98309	697.58282	8.69759	583.54584	3.27159	1307.52563	-965.93665	
1373	13.720				780.31415	9.73894	-632.74652	-719.20178	6.41301	481.00183	697.60626	8.74407	583.50928	3.16802	1307.56592	-965.93402	
